<svg width="22" height="22" viewBox="0 0 22 22" fill="none" xmlns="http://www.w3.org/2000/svg">
<path fill-rule="evenodd" clip-rule="evenodd" d="M14.6666 11.0002C14.6666 13.0252 13.0249 14.6668 10.9999 14.6668C8.97487 14.6668 7.33325 13.0252 7.33325 11.0002C7.33325 8.97512 8.97487 7.3335 10.9999 7.3335C13.0249 7.3335 14.6666 8.97512 14.6666 11.0002ZM12.8333 11.0002C12.8333 12.0127 12.0125 12.8335 10.9999 12.8335C9.98737 12.8335 9.16659 12.0127 9.16659 11.0002C9.16659 9.98761 9.98737 9.16683 10.9999 9.16683C12.0125 9.16683 12.8333 9.98761 12.8333 11.0002Z" fill="#808080"/>
<path fill-rule="evenodd" clip-rule="evenodd" d="M10.9999 2.75C16.1254 2.75 20.4322 6.25563 21.6533 11C20.4322 15.7444 16.1254 19.25 10.9999 19.25C5.87433 19.25 1.56755 15.7444 0.346436 11C1.56755 6.25563 5.87433 2.75 10.9999 2.75ZM10.9999 17.4167C6.89728 17.4167 3.42026 14.7199 2.25235 11C3.42026 7.28004 6.89728 4.58333 10.9999 4.58333C15.1025 4.58333 18.5795 7.28004 19.7475 11C18.5795 14.7199 15.1025 17.4167 10.9999 17.4167Z" fill="#808080"/>
<rect x="19.5303" y="0.915039" width="2.44444" height="26.3264" rx="1.22222" transform="rotate(45 19.5303 0.915039)" fill="#808080"/>
</svg>
